/* XPM */
static char *_290d140c3094ed7cf2be7c5ea015c4d2lwdtxWfq3GcGagD[] = {
/* columns rows colors chars-per-pixel */
"80 80 191 2 ",
"   c None",
".  c #170625",
"X  c #1A0725",
"o  c #190926",
"O  c #1C0F28",
"+  c #1F142A",
"@  c #280D27",
"#  c #310E26",
"$  c #3E0C25",
"%  c #361426",
"&  c #3A1226",
"*  c #361828",
"=  c #282032",
"-  c #31293C",
";  c #3F2937",
":  c #352427",
">  c #420E25",
",  c #431226",
"<  c #491326",
"1  c #461829",
"2  c #481828",
"3  c #581828",
"4  c #7C1D28",
"5  c #681F26",
"6  c #592227",
"7  c #453329",
"8  c #6B2D27",
"9  c #65242C",
"0  c #6B2B2C",
"q  c #742D2D",
"w  c #78202B",
"e  c #6E3927",
"r  c #6E3727",
"t  c #75332B",
"y  c #723C27",
"u  c #7A2E30",
"i  c #7C3734",
"p  c #70472B",
"a  c #725830",
"s  c #7F6232",
"d  c #3C3546",
"f  c #433D4C",
"g  c #51484F",
"h  c #4C4754",
"j  c #4D4855",
"k  c #524E58",
"l  c #5C5052",
"z  c #754F55",
"x  c #7C5254",
"c  c #5F5A64",
"v  c #5C5762",
"b  c #6D6779",
"n  c #6D6972",
"m  c #726C7E",
"M  c #67646D",
"N  c #891F27",
"B  c #9C2529",
"V  c #992427",
"C  c #8D3C2B",
"Z  c #843232",
"A  c #8D3634",
"S  c #9D3A33",
"D  c #963734",
"F  c #A82728",
"G  c #A82929",
"H  c #B52B28",
"J  c #B92E29",
"K  c #AC3A2C",
"L  c #B4322D",
"P  c #BA312B",
"I  c #AD3B34",
"U  c #A63430",
"Y  c #B73E34",
"T  c #C52F29",
"R  c #C4302A",
"E  c #CA332B",
"W  c #CD3A2D",
"Q  c #D53E2B",
"!  c #C93E39",
"~  c #D13A33",
"^  c #804427",
"/  c #9C482A",
"(  c #995E31",
")  c #9E4B36",
"_  c #A6462C",
"`  c #BD512E",
"'  c #A44434",
"]  c #B74832",
"[  c #AC5832",
"{  c #B75633",
"}  c #B6642B",
"|  c #AF6D35",
" . c #CB402A",
".. c #CB4E2F",
"X. c #D3452A",
"o. c #DC4528",
"O. c #D14F2A",
"+. c #DE4B2A",
"@. c #C4552F",
"#. c #D0502E",
"$. c #DC542F",
"%. c #DE423B",
"&. c #D4413B",
"*. c #D75C34",
"=. c #E64D26",
"-. c #E64E28",
";. c #E95427",
":. c #E6532B",
">. c #EA5A2B",
",. c #E95628",
"<. c #E14734",
"1. c #E34934",
"2. c #E0453B",
"3. c #E55E31",
"4. c #E3523A",
"5. c #C56B2C",
"6. c #DC792C",
"7. c #C36731",
"8. c #D36433",
"9. c #DE6232",
"0. c #DB6B35",
"q. c #D67838",
"w. c #EB642D",
"e. c #EE6E2B",
"r. c #EF792F",
"t. c #F0732B",
"y. c #F27A2C",
"u. c #E66533",
"i. c #EB6633",
"p. c #EC6A33",
"a. c #E5653B",
"s. c #F16B33",
"d. c #F06732",
"f. c #ED7335",
"g. c #E8713D",
"h. c #F27432",
"j. c #F27A37",
"k. c #9E6C6A",
"l. c #917877",
"z. c #E77742",
"x. c #DD843D",
"c. c #D8893F",
"v. c #EF802D",
"b. c #F4842E",
"n. c #F7892E",
"m. c #E28F3F",
"M. c #E98E3C",
"N. c #F58431",
"B. c #F68B34",
"V. c #F88E32",
"C. c #F3833B",
"Z. c #F68C3D",
"A. c #EA973E",
"S. c #F3923D",
"D. c #FA963A",
"F. c #FA9A3B",
"G. c #F89233",
"H. c #F9A33D",
"J. c #E39043",
"K. c #F99642",
"L. c #F59942",
"P. c #FA9D43",
"I. c #F39440",
"U. c #EC8C45",
"Y. c #D1A64D",
"T. c #F6A344",
"R. c #FCA144",
"E. c #F8AA48",
"W. c #E7B54B",
"Q. c #FBB54B",
"!. c #FDBB4B",
"~. c #FEC24E",
"^. c #FFC752",
"/. c #FFCB53",
"(. c #7F7B84",
"). c #817D86",
"_. c #817B8B",
"`. c #838088",
"'. c #8F8996",
"]. c #8C8694",
"[. c #938D99",
"{. c #96919E",
"}. c #9A95A1",
"|. c #A69FA8",
" X c #A9A5AE",
".X c #A5A2AA",
"XX c #ADA9B2",
"oX c #B1ADB6",
"OX c #B3AEB8",
"+X c #B6B2BB",
"@X c #B9B5BE",
/* pixels */
"                                                                                                                                                                ",
"                                                                                                                                                                ",
"                                                                                                                                                                ",
"                                                                                                                                                                ",
"                                                                                                                                                                ",
"                                                                                                                                                                ",
"                                                                                                                                                                ",
"                                                                                                                                                                ",
"                                                                                                                                                                ",
"                                                                                                                                                                ",
"                                                                                                                                                                ",
"                                                                                                                                                                ",
"                                                                                                                                                                ",
"                                                                                                                                                                ",
"                                                                                                                                                                ",
"                                                                                                                                                                ",
"                                                                                                                                                                ",
"                                                                                                                                                                ",
"                                                                                                                                                                ",
"                                                                                                                                                                ",
"                                                                                                                                                                ",
"                                                                                                                                                                ",
"                                                                                                                                                                ",
"                                                                                                                                                                ",
"                                                      . . . . . . . . . . . .                                                                                   ",
"                                                      # # > > $ $ > < < > > >                                                                                   ",
"                                                  . * Z Z G H J H J ! ! P H V . o                                                                               ",
"                                                  . & A D P T E T E 2.2.~ R B . .                                                                               ",
"                                                i / ' { ` 8.0.q.m.q.<.<.Q Q P 4 4                                                                               ",
"                                            o . C p.s.s.s.K.R.Q./.^.-.-.-.-.o.T H $ .                                                                           ",
"                                            o . C p.s.s.f.K.P.Q./.~.-.-.-.-.o.T H $ .                                                                           ",
"                                            . . 0 ] ] :.>.s.f.C.F.H.Q.Q.g.<.<.o. .< .                                                                           ",
"                                            . . 3 A S +.-.-.-.e.n.G.^./.g.%.1.;.+.< .                                                                           ",
"                                            t t C [ { w.w.w.>.e.b.B.~.~.U.z.a.-.X.3 1                                                                           ",
"                                        X o @.p.f.b.B.K.P.B.n.t.;.,.V.V.!.^.E.%.&.D A 2 . X X o                                                                 ",
"                                        . . @.p.f.B.B.P.R.G.n.t.=.,.n.n.!./.E.%.&.D A 2 o X X o                                                                 ",
"                                        . . K X...{ { ( ( A.F.B.y.y.w.w.L.Q.J.I I P L G F F F B O o                                                             ",
"                                        . . F T L A Z * * m.R.F.n.n.=.-.I.P.x.A D R T T T T T H . X                                                             ",
"                                        . . B R L A Z ; ; c.L.S.n.n.1.-.I.K.x.' ' E T T E E E J > <                                                             ",
"                                        . X q A q . - b m d . | R.K.T T >.s.U.R.S. .T %.2.1.-.+.T T 3 . X                                                       ",
"                                        . . q A u . - b m d . | R.K.R R 3.s.C.P.I. .E %.2.1.-.-.T T 3 X .                                                       ",
"                                        O + 9 0 z ).)._._.f o [ Z.C.L L 3.s.j.Z.C.$.$.u.p.f.j.f.~ ~ V N w                                                       ",
"                                            X . n @X+X{.'.h . _ s.i.A A 9.s.s.s.s.s.s.N.n.D.R.I.%.%.E T V . .                                                   ",
"                                            O . M @XOX}.{.j . _ s.i.S S *.u.i.p.i.d.d.b.n.F.E.L.4.4.W R B % %                                                   ",
"                                                      +X+Xl o _ s.p.-.+.] S I W X.-.;.,.>.T.^.!.N.N.4.~ Y Z u @ o                                               ",
"                                                      @X@Xc o _ s.d.-.=.I A U T E =.-.-.-.T./.~.N.V.4.2.! A Z @ .                                               ",
"                                                        @X`.).k.` @.>.>.8.7.q.m.m.S.S.r.e.Z.T.T.D.D.j.s.*.] K # .                                               ",
"                                                          @X@X'.. 6 s.s.b.n.H././././.F.n.e.=.w.P.P.B.B.t.-.X.& .                                               ",
"                                                          @X@X'.. 6 d.s.b.n.H./././.^.H.n.e.:.w.R.R.V.V.t.-.X.$ .                                               ",
"                                                                 X|.8 8 r p p a a a ( W.~.H.b.r.#.#.b.n.5.5 9                                                   ",
"                                                                @XoX. . . . . . . . : W./.T.n.v.T T y.n.} . .                                                   ",
"                                                                @XXX. . h c c c k h l Y.W.H.n.v.#.#.6.6.} O .                                                   ",
"                                                                        @X@X@X+XoX[.].j : 5.n.n.n.n.y * *                                                       ",
"                                                                        @X@X@X@X+X{.'.j = 7.n.n.n.n.r . .                                                       ",
"                                                                                  oXoX.X.Xl.^ / t.h.8 . .                                                       ",
"                                                                                  @X@X@X@X(.o r s.s.8 . .                                                       ",
"                                                                                  @X@X@X@X).k x 9.9.0 o                                                         ",
"                                                                                            +XXX. .                                                             ",
"                                                                                          @X@XXX. .                                                             ",
"                                                                                                                                                                ",
"                                                                                                                                                                ",
"                                                                                                                                                                ",
"                                                                                                                                                                ",
"                                                                                                                                                                ",
"                                                                                                                                                                ",
"                                                                                                                                                                ",
"                                                                                                                                                                ",
"                                                                                                                                                                ",
"                                                                                                                                                                ",
"                                                                                                                                                                ",
"                                                                                                                                                                ",
"                                                                                                                                                                ",
"                                                                                                                                                                ",
"                                                                                                                                                                ",
"                                                                                                                                                                ",
"                                                                                                                                                                ",
"                                                                                                                                                                ",
"                                                                                                                                                                ",
"                                                                                                                                                                ",
"                                                                                                                                                                "
};
