/* XPM */
static char *result[] = {
/* columns rows colors chars-per-pixel */
"80 80 87 1 ",
"  c #21110D",
". c #2B1B14",
"X c #311E15",
"o c #092B0C",
"O c #19210D",
"+ c #0B310F",
"@ c #122E14",
"# c #0D3611",
"$ c #0E3A12",
"% c #113A15",
"& c #18311A",
"* c #242714",
"= c #33231A",
"- c #3A261A",
"; c #3D291C",
": c #39311B",
"> c #422D1F",
", c #432E20",
"< c #4D3423",
"1 c #503625",
"2 c #523926",
"3 c #5A3E2A",
"4 c #0F4015",
"5 c #114517",
"6 c #134718",
"7 c #164B19",
"8 c #1A4E1A",
"9 c #1B531C",
"0 c #1F591F",
"q c #23551D",
"w c #28571D",
"e c #225A1E",
"r c #245E20",
"t c #34423A",
"y c #276423",
"u c #2B6423",
"i c #2B6B26",
"p c #306523",
"a c #316C26",
"s c #2F7228",
"d c #327429",
"f c #39752A",
"g c #347B2C",
"h c #3C7C2C",
"j c #5D412C",
"k c #61442E",
"l c #654630",
"z c #674831",
"x c #6E4D34",
"c c #735137",
"v c #755338",
"b c #464F4D",
"n c #514F55",
"m c #4C5354",
"M c #525055",
"N c #55535A",
"B c #5E5658",
"V c #5F595E",
"C c #5B5D62",
"Z c #625C60",
"A c #5D6266",
"S c #5E6468",
"D c #626066",
"F c #64636B",
"G c #6D666B",
"H c #676B71",
"J c #6A6E75",
"K c #70717B",
"L c #3B822E",
"P c #3E8530",
"I c #41842F",
"U c #418630",
"Y c #458E34",
"T c #469035",
"R c #4A9436",
"E c #4E9938",
"W c #519D3A",
"Q c #53A03B",
"! c #757680",
"~ c #777983",
"^ c #7A7B85",
"/ c #7C7D88",
"( c #7E808B",
") c #82848F",
"_ c #848691",
"` c #878993",
"' c None",
/* pixels */
"''''''''''''''''''''''''''''''''''''''''''''''''''''''''''''''''''''''''''''''''",
"''''''''''''''''''''''''''''''''''''''''''''''''''''''''''''''''''''''''''''''''",
"''''''''''''''''''''''''''''''''''''''''''''''''''''''''''''''''''''''''''''''''",
"''''''''''''''''''''''''''''''''''''''''''''''''''''''''''''''''''''''''''''''''",
"''''''''''''''''''''''''''''''''''''''''''''''''''''''''''''''''''''''''''''''''",
"''''''''''''''''''''''''''''''''''''''''''''''''''''''''''''''''''''''''''''''''",
"''''''''''''''''''''''''''''''''''''whhfw'''''''''''''''''''''''''''''''''''''''",
"'''''''''''''''''''''''''''''''''''rRQQQYhr''rfhhw''''''''''''''''''''''''''''''",
"''''''''''''''''''''''''''''8phfe'rYQQQQQQYhrRWQWIw'''''''''''''''''''''''''''''",
"'''''''''''''''''''''''''''8fRWWYhgQQQQQQQQWgQQQQWpphae'''''''''''''''''''''''''",
"'''''''''''''''''''''''''''eYWQQQQRYQQQQQQQQTWQQQQURWEhw''''''''''''''''''''''''",
"''''''''''''''''''''''''''+9hWQQQQQYQQQQQQQQQQQQQQQQQWTi&'''''''''''''''''''''''",
"'''''''''''''''''''''''er8uhIRWQQQQQQQQQQQQQQQQQQQQQWWRw%'''''''''''''''''''''''",
"''''''''''''''''''''''eURfUQWRQQQQQQQQQQQQQQQQQQQQQQWRhhf@''''''''''''''''''''''",
"'''''''''''''''''''''oIWQREQQQQQQQQQQQQQQQQQQQQQQQQQQRTQTe''''''''''''''''''''''",
"'''''''''''''''''''''eRQQQQQQQQQQQQQQQQQQQQQQQTWQQQQQQWWRd@'''''''''''''''''''''",
"''''''''''''''''''''egYEQQQQQQQQQQQQQQYRhRQYhYTQQQQQQQQQWUr'''''''''''''''''''''",
"'''''''''''''''''''ogggRQQQQQQQQQQQQQQYYyyhyyhWQQQQQQQQQWWdo''''''''''''''''''''",
"'''''''''''''''''''rggYWQQQQQQQQQQQQQQQQYhy6gTQQQQQQQQQQQWU@''''''''''''''''''''",
"''''''''''''''''''ogYgEQQQQQQQQQQQQQQQQQQQTyTQQQQQQQQQQQQQWr''''''''''''''''''''",
"''''''''''''''''''oYQTTWWYTQQQQQQQQQQQQQQQQTQQQQQQQQQQQQQQQUo'''''''''''''''''''",
"''''''''''''''''''oTQQLYIyhQQQQQQQQQQQQQQQQQQQQQQQQQQQQQQQQWo'''''''''''''''''''",
"''''''''''''''''''ogYTgi90YQQQQQQQQQQQQQQQQQQQQQQQQQQQQQQQWYo'''''''''''''''''''",
"'''''''''''''''''''ryyy8esLEQQQQQQQQQQQQQQQQQQQQQQQQQQQQQQWr''''''''''''''''''''",
"'''''''''''''''''''$4y7yLTLYQQQQQQQQQQQQQQQQQQQQQQQQQQQQQWUo''''''''''''''''''''",
"''''''''''''''''''$hhg9sRQETRQQQQQQQQQQQQQQQQQQQQQQQQQQQQWUr''''''''''''''''''''",
"'''''''''''''''''oyQQL9sPEQERQQQQQQQQQQQQQQQQQQQQQQQQQWQQQWgo'''''''''''''''''''",
"'''''''''''''''''rTQTg9edTQWQQQQQQQQQQQQQQQQQQQQQQQQQQERQQWTyo''''''''''''''''''",
"''''''''''''''''ogQQTTs8iRQQQQQWRQQQQQQQQQQQQQQQQQQQQWUgUQQWho''''''''''''''''''",
"''''''''''''''''ogQQQQTdsRQQQQWWghQQQQQQQWQQQQQQQQQQWUyreLYYgo''''''''''''''''''",
"''''''''''''''''oyTQQQQUidRQQQWYgyhhYQQQWTTQQQQQQQQQQRarhhggr'''''''''''''''''''",
"'''''''''''''''''$yYYWQRPyuTQWYYTYh6yYQQTggQQQQQQQQQQWYhQWYgo'''''''''''''''''''",
"'''''''''''''''''o6yyhYWWYiyPPPQQQQhyyYYggTQQQQQQQQQQQETRQEgr'''''''''''''''''''",
"''''''''''''''''''$5yhiPWWUysLRQQQQQRyggYTQQQQQQQQQQQQQRLYYggo''''''''''''''''''",
"''''''''''''''''''o5YEdsURgsPRQQQQQQQTgTQQQQQQQQQQQQQQWRggggyo''''''''''''''''''",
"''''''''''''''''''$5QQThiy9yPQETQQQQQYgQQQQQQQQQQQQREQRhgggg5$''''''''''''''''''",
"'''''''''''''''''o5yhYYd9aaydYYLQQQQQggYQQQQQQQQQQQRUhdigggg55o'''''''''''''''''",
"'''''''''''''''''oyThiy9aREUPggRQQQQYRYgTQYQQhQQQREQfiUYgggy55o'''''''''''''''''",
"'''''''''''''''''ogQWa85UWQQEPPQQYQQTQQYTQThhyQQRYTYgUWWPggy55o'''''''''''''''''",
"'''''''''''''''''oyTTy86dREEQRLTYgYQQQQQQQQh6gYTYWRPgPRQEgggy5o'''''''''''''''''",
"''''''''''''''''''$yy75r8aagYYgggggTTQQQQQQQyggTEQQPggPTYsyLg$''''''''''''''''''",
"'''''''''''''''''''$55yPUrriggsiggYTgQQQQQQQgggTTQQhsgssgs7yyo''''''''''''''''''",
"'''''''''''''''''''o6$rRWPhPggs7iYQQghQQQQQQTggygYLssgsyyy56$'''''''''''''''''''",
"''''''''''''''''''''$o#aYYEEPhPy8QQTg5QQQQYQQgy6yy9igggi644$''''''''''''''''''''",
"'''''''''''''''''''''o$5rYWRPREUiYYgg6TQQTgTTgy6$45igsy05$%'''''''''''''''''''''",
"'''''''''''''''''''''o%56ihdhQQEgyggyygTYgggygg7+$50y045$o''''''''''''''''''''''",
"''''''''''''''''''''''$55$4yPTYYy#yy5ggggygg6yy6+#$466554o''''''''''''''''''''''",
"'''''''''''''''''''''''$$+$9yyyy5o$55gggy6yy555$oo+$$$55$'''''''''''''''''''''''",
"'''''''''''''''''''''''''o$56645$oo55yyy5$6655$oo+ooo+$$''''''''''''''''''''''''",
"''''''''''''''''''''''''''#$$$$$ooo$5555#o$%$$*OCAtomDSH''''''''''''''''''''''''",
"'''''''''''''''''''''''''''bAmOO**:o$$%$****&*= ^_HSK_))_'''''''''''''''''''''''",
"'''''''''''''''''''''''''''`~V2-=,1:**::====,X=;C/_()))))_''''''''''''''''''''''",
"'''''''''''''''''''''''''`_~Bjx,=1,1=3z1,==,1==k.~)))))))))'''''''''''''''''''''",
"''''''''''''''''''''''''_)_F<x2-j1,,3vvl1=,l1,=k3C^)))))))_'''''''''''''''''''''",
"'''''''''''''''''''''''__))F;<-kvl1=vvvv1,1vl1=,k>N~))))))))''''''''''''''''''''",
"''''''''''''''''''''''_))))~n-kcll1.lvll1l1vv1==k3;n~)))))))''''''''''''''''''''",
"''''''''''''''''''''''_)_/_!Blvck1, lvl1lvlvv1==kck>F)))))))''''''''''''''''''''",
"''''''''''''''''''''''_)___F<vvvv1.;vvv1vjvvvl,.>jc<F)))))))''''''''''''''''''''",
"''''''''''''''''''''''_)__(H<vvck, lvvvl3=lvlvl..<j>H_))))))''''''''''''''''''''",
"''''''''''''''''''''''_)_(_F,llk,.;vvvlv=.,llvv3.VGD~_))))))''''''''''''''''''''",
"''''''''''''''''''''''____(!FGGGC lvvl1l= =1vvvv3V^))))))))'''''''''''''''''''''",
"'''''''''''''''''''''''_(______(( vvv11,. .1lvvvz-K))))))))'''''''''''''''''''''",
"'''''''''''''''''''''''____(_(_(( lll11=ZFZ;1lzl2XK))))))_''''''''''''''''''''''",
"''''''''''''''''''''''''_(___(___FGGGGGF___ZGGGGGD^)))))))''''''''''''''''''''''",
"''''''''''''''''''''''''__))))))))))))))))))))))))))))))_'''''''''''''''''''''''",
"'''''''''''''''''''''''''_)))))))))))))))))))))))))))))_''''''''''''''''''''''''",
"''''''''''''''''''''''''''__))))))))))))))))))))))))))_'''''''''''''''''''''''''",
"'''''''''''''''''''''''''''_))))))))))))))))))))))))_'''''''''''''''''''''''''''",
"'''''''''''''''''''''''''''''''')))))))))))'''))))`'''''''''''''''''''''''''''''",
"''''''''''''''''''''''''''''''''''''''''''''''''''''''''''''''''''''''''''''''''",
"''''''''''''''''''''''''''''''''''''''''''''''''''''''''''''''''''''''''''''''''",
"''''''''''''''''''''''''''''''''''''''''''''''''''''''''''''''''''''''''''''''''",
"''''''''''''''''''''''''''''''''''''''''''''''''''''''''''''''''''''''''''''''''",
"''''''''''''''''''''''''''''''''''''''''''''''''''''''''''''''''''''''''''''''''",
"''''''''''''''''''''''''''''''''''''''''''''''''''''''''''''''''''''''''''''''''",
"''''''''''''''''''''''''''''''''''''''''''''''''''''''''''''''''''''''''''''''''",
"''''''''''''''''''''''''''''''''''''''''''''''''''''''''''''''''''''''''''''''''",
"''''''''''''''''''''''''''''''''''''''''''''''''''''''''''''''''''''''''''''''''",
"''''''''''''''''''''''''''''''''''''''''''''''''''''''''''''''''''''''''''''''''",
"''''''''''''''''''''''''''''''''''''''''''''''''''''''''''''''''''''''''''''''''"
};
