/* XPM */
static char *result[] = {
/* columns rows colors chars-per-pixel */
"80 80 189 2 ",
"   c #0B090A",
".  c #100F0E",
"X  c #1A0F0E",
"o  c #0E110B",
"O  c #12110F",
"+  c #1B110F",
"@  c #161A0F",
"#  c #141311",
"$  c #1C1513",
"%  c #171912",
"&  c #1B1C12",
"*  c #241511",
"=  c #231915",
"-  c #2B1B16",
";  c #2B1D18",
":  c #331D17",
">  c #331F19",
",  c #17210D",
"<  c #19200F",
"1  c #1E2B0F",
"2  c #1C2311",
"3  c #1F2912",
"4  c #242415",
"5  c #212D11",
"6  c #282B16",
"7  c #2C2719",
"8  c #2B2C19",
"9  c #2B2516",
"0  c #35211A",
"q  c #3A231C",
"w  c #352B19",
"e  c #3C2B1A",
"r  c #253313",
"t  c #293416",
"y  c #2B3A16",
"u  c #2A3319",
"i  c #2C3B19",
"p  c #30361C",
"a  c #3B331C",
"s  c #41261D",
"d  c #46291F",
"f  c #4D2D1E",
"g  c #522F1A",
"h  c #4E3617",
"j  c #43361A",
"k  c #55331E",
"l  c #5A361F",
"z  c #5B381F",
"x  c #62371E",
"c  c #623A1F",
"v  c #442921",
"b  c #4B2D24",
"n  c #502F25",
"m  c #4E3127",
"M  c #4F3B27",
"N  c #543225",
"B  c #5B3523",
"V  c #533329",
"C  c #58352A",
"Z  c #5E392D",
"A  c #5F3A22",
"S  c #603722",
"D  c #643A23",
"F  c #6C3E24",
"G  c #633A2A",
"H  c #6B3E2A",
"J  c #653E32",
"K  c #334515",
"L  c #3B4F17",
"P  c #34451C",
"I  c #3A4C1B",
"U  c #3D521A",
"Y  c #41481D",
"T  c #41571A",
"R  c #465D1E",
"E  c #485F1F",
"W  c #6A431F",
"Q  c #7F551D",
"!  c #4B641C",
"~  c #4F681E",
"^  c #506A1F",
"/  c #55711F",
"(  c #544428",
")  c #5D5C2A",
"_  c #6D4521",
"`  c #6E412C",
"'  c #734324",
"]  c #794527",
"[  c #7D4B25",
"{  c #75442B",
"}  c #7A462C",
"|  c #734B29",
" . c #7D4B2C",
".. c #6A5523",
"X. c #755927",
"o. c #6C4232",
"O. c #754531",
"+. c #764832",
"@. c #7C4A31",
"#. c #886E1F",
"$. c #814E24",
"%. c #804B2D",
"&. c #894E2B",
"*. c #855225",
"=. c #8E5824",
"-. c #875328",
";. c #8C532D",
":. c #8D5C2C",
">. c #8B5426",
",. c #905926",
"<. c #94542F",
"1. c #99572E",
"2. c #945B29",
"3. c #9C5D2D",
"4. c #824C30",
"5. c #884F30",
"6. c #855232",
"7. c #8E5530",
"8. c #8E5B33",
"9. c #905731",
"0. c #945A31",
"q. c #9A5C30",
"w. c #9F6825",
"e. c #9D622A",
"r. c #9B6A2A",
"t. c #92672C",
"y. c #927327",
"u. c #8A6332",
"i. c #936130",
"p. c #9C6031",
"a. c #9B6930",
"s. c #A4622E",
"d. c #A9652F",
"f. c #A36A2B",
"g. c #AE6A2E",
"h. c #B36D2F",
"j. c #AE722D",
"k. c #AA7D2A",
"l. c #B3752C",
"z. c #B4782D",
"x. c #BF7E2F",
"c. c #BB742F",
"v. c #A46531",
"b. c #AA6730",
"n. c #AD6A31",
"m. c #A66A32",
"M. c #B16E31",
"N. c #AA7332",
"B. c #A67332",
"V. c #B47231",
"C. c #BA7230",
"Z. c #B57930",
"A. c #BB7B34",
"S. c #C17830",
"D. c #AC822C",
"F. c #AB892C",
"G. c #B5832D",
"H. c #BA892C",
"J. c #BF992F",
"K. c #BB902B",
"L. c #BB8D32",
"P. c #C38E2F",
"I. c #C7972E",
"U. c #C68332",
"Y. c #CC8432",
"T. c #C28A31",
"R. c #CF8B32",
"E. c #D38A33",
"W. c #D88E34",
"Q. c #C29332",
"!. c #CD9431",
"~. c #C29B33",
"^. c #C89833",
"/. c #D29432",
"(. c #DD9436",
"). c #D79F33",
"_. c #DB9D33",
"`. c #E39836",
"'. c #D0A031",
"]. c #DAA433",
"[. c #DFA932",
"{. c #DFB532",
"}. c #E1A734",
"|. c #E8AB35",
" X c #EDA138",
".X c #E4A934",
"XX c #F3B836",
"oX c #F7CB34",
"OX c None",
/* pixels */
"OXOXOXOXOXOXOXOXOXOXOXOXOXOXOXOXOXOXOXOXOXOXOXOXOXOXOXOXOXOXOXOXOXOXOXOXOXOXOXOXOXOXOXOXOXOXOXOXOXOXOXOXOXOXOXOXOXOXOXOXOXOXOXOXOXOXOXOXOXOXOXOXOXOXOXOXOXOXOXOX",
"OXOXOXOXOXOXOXOXOXOXOXOXOXOXOXOXOXOXOXOXOXOXOXOXOXOXOXOXOXOXOXOXOXOXOXOXOXOXOXOXOXOXOXOXOXOXOXOXOXOXOXOXOXOXOXOXOXOXOXOXOXOXOXOXOXOXOXOXOXOXOXOXOXOXOXOXOXOXOXOX",
"OXOXOXOXOXOXOXOXOXOXOXOXOXOXOXOXOXOXOXOXOXOXOXOXOXOXOXOXOXOXOXOXOXOXOXOXOXOXOXOXOXOXOXOXOXOXOXOXOXOXOXOXOXOXOXOXOXOXOXOXOXOXOXOXOXOXOXOXOXOXOXOXOXOXOXOXOXOXOXOX",
"OXOXOXOXOXOXOXOXOXOXOXOXOXOXOXOXOXOXOXOXOXOXOXOXOXOXOXOXOXOXOXOXOXOXOXOXOXOXOXOXOXOXS.S.S.S.S.S.OXOXOXOXOXOXOXOXOXOXOXOXOXOXOXOXOXOXOXOXOXOXOXOXOXOXOXOXOXOXOXOX",
"OXOXOXOXOXOXOXOXOXOXOXOXOXOXOXOXOXOXOXOXOXOXOXOXOXOXOXOXOXOXOXOXOXOXOXOXOXOXS.S.S.S.S.g.1.1.1.OXOXOXOXOXOXOXOXOXOXOXOXOXOXOXOXOXOXOXOXOXOXOXOXOXOXOXOXOXOXOXOXOX",
"OXOXOXOXOXOXOXOXOXOXOXOXOXOXOXOXOXOXOXOXOXOXOXOXOXOXOXOXOXOXOXOXOXOXOXOXOXOXS.S.h.s.h.C.C.C.C.c.OXOXOXOXOXOXOXOXOXOXOXOXOXOXOXOXOXOXOXOXOXOXOXOXOXOXOXOXOXOXOXOX",
"OXOXOXOXOXOXOXOXOXOXOXOXOXOXOXOXOXOXOXOXOXOXOXOXOXOXOXOXOXOXOXOXOXOXOXOXOXS.S.S.c.C.A.S.E.E.A.S.S.OXOXOXOXOXOXOXOXOXOXOXOXOXOXOXOXOXOXOXOXOXOXOXOXOXOXOXOXOXOXOX",
"OXOXOXOXOXOXOXOXOXOXOXOXOXOXOXOXOXOXOXOXOXOXOXOXOXOXOXOXOXOXOXOXOXOXOXOXOXA.|.|.E.E.`.E.n.7.6. .OXOXOXOXOXOXOXOXOXOXOXOXOXOXOXOXOXOXOXOXOXOXOXOXOXOXOXOXOXOXOXOX",
"OXOXOXOXOXOXOXOXOXOXOXOXOXOXOXOXOXOXOXOXOXOXOXOXOXOXOXOXOXOXOXOXOXOXOXOX7.v.!.!.A.C.U.V.%.%.e.3.h.S.OXOXOXOXOXOXOXOXOXOXOXOXOXOXOXOXOXOXOXOXOXOXOXOXOXOXOXOXOXOX",
"OXOXOXOXOXOXOXOXOXOXOXOXOXOXOXOXOXOXOXOXOXOXOXOXOXOXOXOXOXOXOXOXOXOXOXS.v.q.q.4.4.4.4.O.C k.[._.Y.c.OXOXOXOXOXOXOXOXOXOXOXOXOXOXOXOXOXOXOXOXOXOXOXOXOXOXOXOXOXOX",
"OXOXOXOXOXOXOXOXOXOXOXOXOXOXOXOXOXOXOXOXOXOXOXOXOXOXOXOXOXOXOXOXOXOXOX!./.E.m.J O.4.O.J C y.~.L.g.,.OXOXOXOXOXOXOXOXOXOXOXOXOXOXOXOXOXOXOXOXOXOXOXOXOXOXOXOXOXOX",
"OXOXOXOXOXOXOXOXOXOXOXOXOXOXOXOXOXOXOXOXOXOXOXOXOXOXOXOXOXOXOXOXOXOXOXF.[.(.g.H 9.v.0.@.| ' ` G V d OXOXOXOXOXOXOXOXOXOXOXOXOXOXOXOXOXOXOXOXOXOXOXOXOXOXOXOXOXOX",
"OXOXOXOXOXOXOXOXOXOXOXOXOXOXOXOXOXOXOXOXOXOXOXOXOXOXOXOXOXOXOXOXOXOXOXV O.3.b.M.g.C.C.M.C.S.2.b m d OXOXOXOXOXOXOXOXOXOXOXOXOXOXOXOXOXOXOXOXOXOXOXOXOXOXOXOXOXOX",
"OXOXOXOXOXOXOXOXOXOXOXOXOXOXOXOXOXOXOXOXOXOXOXOXOXOXOXOXOXOXOX XOXS.$.b ` V.W.Y.C.C.S.E.A.0.' b v q q OXOXOXOXOXOXOXOXOXOXOXOXOXOXOXOXOXOXOXOXOXOXOXOXOXOXOXOXOX",
"OXOXOXOXOXOXOXOXOXOXOXOXOXOXOXOXOXOXOXOXOXOXOXOXOXOXOXOXOXOXOXE.x.g.*.b { V./.U.M.C.S.(.n.b q V v = > s OXOXOXOXOXOXOXOXOXOXOXOXOXOXOXOXOXOXOXOXOXOXOXOXOXOXOXOX",
"OXOXOXOXOXOXOXOXOXOXOXOXOXOXOXOXOXOXOXOXOXOXOXOXOXOXOXOXOXOXOX' c k _  .O.m b } &.<.1.1.} q ; ; 0 - = f ] OXOXOXOXOXOXOXOXOXOXOXOXOXOXOXOXOXOXOXOXOXOXOXOXOXOXOX",
"OXOXOXOXOXOXOXOXOXOXOXOXOXOXOXOXOXOXOXOXOXOXOXOXOXOXOXS.S.S.C.C.b.3.h.S.q.v > b G O.5.<.' d S ' ' z $ [ s.Y.`.OXOXOXOXOXOXOXOXOXOXOXOXOXOXOXOXOXOXOXOXOXOXOXOXOX",
"OXOXOXOXOXOXOXOXOXOXOXOXOXOXOXOXOXOXS.S.S.S.S.S.OXOXOXS.S.S.g.1.1.g.S.S.=.* : v ] 1.1.4.C q ,.S.S.=.# =.S.W. XOXOXOXOXOXOXOXOXOXOXOXOXOXOXOXOXOXOXOXOXOXOXOXOXOX",
"OXOXOXOXOXOXOXOXOXOXOXOXOXOXOXOXS.S.S.g.h.S.g.n.OXOXOXq.S.S.S.g.h.g.1.g.2.= = q d V J p.S.g.g.g.g.=.# =.S.S.S.S.v.OXOXOXOXOXOXOXOXOXOXOXOXOXOXOXOXOXOXOXOXOXOXOX",
"OXOXOXOXOXOXOXOXOXOXOXOXOXS.S.S.n.1.g.S.S.S.S.S.S.S.OXA. XXX.XS.S.S.S.c.2.2.S.n.1.4.q.S.S.S.S.S.g.g.S.S.g.g.g.h.S.S.OXOXOXOXOXOXOXOXOXOXOXOXOXOXOXOXOXOXOXOXOXOX",
"OXOXOXOXOXOXOXOXOXOXOXOXS.S.S.S.S.S.S.S.W.W.S.S.S.S.g.4.4.1.1.U.`.z.d q - =.W.W.2.V p.S.A.S.S.S.W.A.p.A.S.S.S.S.S.p.J OXOXOXOXOXOXOXOXOXOXOXOXOXOXOXOXOXOXOXOXOX",
"OXOXOXOXOXOXOXOXOXOXOXOXOXA.|.|.E.E.`.`.W.n.6.v.h.M.g.4.4.1.1.q.i._ s q - l -.8.` d B z.W.S._.Q.:._ H A.E.E.`.`.|.L.J OXOXOXOXOXOXOXOXOXOXOXOXOXOXOXOXOXOXOXOXOX",
"OXOXOXOXOXOXOXOXOXOXOXOX0.0.N.N.b.b.V.m.:.D ;.C.C.S.b.] G O.5.s.g.g.g.g.g.g.p.&.3.$.- | ^.!.r.X.0 ; v  .3.M.M.M.Z.t.n OXOXOXOXOXOXOXOXOXOXOXOXOXOXOXOXOXOXOXOXOX",
"OXOXOXOXOXOXOXOXOXOXOXS.C.V.,.G O.O.O.o.V f.[.|.E.S.M.] { @.4.g.S.S.S.h.s.h.S.C.h.] = 7 X.a.] s v q v b G O.O.O.O.G b OXOXOXOXOXOXOXOXOXOXOXOXOXOXOXOXOXOXOXOXOX",
"OXOXOXOXOXOXOXOXOXOXOX[._.W.f.C J O.4.O.C 2.H.H.I.[.G.B F 5.H l.Y.S.S.C.n.C.C.g.n.*.= = m O.` b > q > b H 4.4.4.O.V d OXOXOXOXOXOXOXOXOXOXOXOXOXOXOXOXOXOXOXOXOX",
"OXOXOXOXOXOXOXOXOXOXOXOXP.U.d.%.9.v.b.b.<.&.3._ #.I.k.z D O.V s._.[._.Y.S./.].H.S.f.= = m J G v - = > b H 4.4.5.%.n b OXOXOXOXOXOXOXOXOXOXOXOXOXOXOXOXOXOXOXOXOX",
"OXOXOXOXOXOXOXOXOXOXOXd H %.q.h.C.S.S.S.h.C.S.,.$ S 9.' D O.n ' D.~.T.C.g.H.).H.V.-.= ; m O.H s v b v n J O.4.<.] d $.S.OXOXOXOXOXOXOXOXOXOXOXOXOXOXOXOXOXOXOXOX",
"OXOXOXOXOXOXOXOXOXOXOXOXG o.q.S.S.C.C.C.C.C.S.,.$ b } F ] %.C d N G } ;.<.<.9.5.{ b - = v O.{ q b Z n V J 4.1.<.] d 2.S.S.OXOXOXOXOXOXOXOXOXOXOXOXOXOXOXOXOXOXOX",
"OXOXOXOXOXOXOXOXOXOXOXOXF @.p.S.S.h.s.s.1.b.S.>.$ s B n F F D B d b n G H +.+.J b b ; # - b b : ; - : q C 4.<.<.F d ,.S.C.C.C.OXOXOXOXOXOXOXOXOXOXOXOXOXOXOXOXOX",
"OXOXOXOXOXOXOXOXOXOXOXOXV J q.S.S.S.S.S.M.s.M.,.; G 0.>.F F &.F d C C %.1.1.<.@.J m $ = > b n b v s s v V @.@.J C s ,.h.s.3.n.S.S.S.A.c.C.A.C.OXOXOXOXOXOXOXOXOX",
"OXOXOXOXOXOXOXOXOXOXOXOXJ J p.A.S.S.g.M.S.S.S.,.; ,.S.S.h.F s d d N C F 1.1.4.C C b # > b C J V ; * $ > v C J J C v 2.S.S.g.g.S.S.S.g.g.h.g.p.OXOXOXOXOXOXOXOXOX",
"OXOXOXOXOXOXOXOXOXOXOXOXOX; m A.XXXX`. XW.S.g.1.n.A.S.S.S.S.,.- q d C 4.1.<.4.n q q - = = - > v v : O $ b 4.1.4.G > ,.b.g.S.S.S.S.S.S.S.S.S.S.S.OXOXOXOXOXOXOXOX",
"OXOXOXOXOXOXOXOXOXOXOXOXOXq C %.1.1.4.%.1.1.1.1.g.S.g.g.g.g.g.] 1.S.S.S.S.p.J V q q ,.S.S.S.S.>..   * ; m J 4.] C b ,.S.S.S.g.g.W.W.W. X XXXXX XOXOXOXOXOXOXOXOX",
"OXOXOXOXOXOXOXOXOXOXOXOXC C C %.4.J o.V q - - =.W.W.S.S.S.n.g.S.S.g.g.g.g.S.1.> q > F 1.1.1.h.S.S.S.S.2.q ; q d q q ] g.S.S.S.S.S.g.1.1.1.1.4.OXOXOXOXOXOXOXOXOX",
"OXOXOXOXOXOXOXOXOXOXOXZ J C v Z o.@.s.g.3.3.3.d.S.M.Q.|.E.v.9.h.S.C.S.S.A.S.q.G b $.h.M.C.C.c.h.s.M.S.l.:.C Z Z b D s.A.E.W.b.4. .{ O.O.O.O.o.J OXOXOXOXOXOXOXOX",
"OXOXOXOXOXOXOXOXOXOXOX1.%.C q ' 4.m ,.S.S.c.S.S.M.1.g.p.4.<.1.%.H q.W.`.`.XX~.C d C J J A.W.S.S.S.S.S.S.A.g.1.1.1.n.3.J J C C q.S.:.m 4.1.%.m OXOXOXOXOXOXOXOXOX",
"OXOXOXOXOXOXOXOXOXOXi 4 q ] ' m J m j.XX[.S.S.S.g.1.b.S.g.1.] d C 5.1.1.1.1.] > # # 0 d V p.W. XW.W.XXXXA.b O O # b J 4.1.U.W.S.g.g.q.o.4.] b OXOXOXOXOXOXOXOXOX",
"OXOXOXOXOXOXOXOXOXT U w d k ' &.` s _ y.U.W.A.S.S.C.S.S.E.f.C N C J O.O.@.H G G C C Z C b ` p.V.b.b.Z.Z.0.7.[ - $ q { 4.O.6.;.%.@.{ S V 4.%.b OXOXOXOXOXOXOXOXOX",
"OXOXOXOXOXOXOXOXOXR I i e d B l N V C C  .a.!.|.E.).(.s.*.W ; ; : > v n n b b v v d > - - 0 B O.O.O.O.q.v.b.h.;.v b o.0.n.0.V b n v > C 4.4.m OXOXOXOXOXOXOXOXOX",
"OXOXOXOXOXOXOXOXj.l.f.g.g.3.&.x q b -.g.n.2.u.B.g.j.r.k * $         X * * = - * $ X       o - V @.@.Z j.`..XK.2.g.3.q.C.l.g.g.-.b q ; V 4.4.m OXOXOXOXOXOXOXOXOX",
"OXOXOXOXOXOXOXOXS.S.C.g.C.C.n.s.,.' 2.S.S.A.i.{ 7.7.H 0 .                                     z q.q.%.v.Y.T.y.,.S.V.C.S.C.V.g.W > - - m O.J v OXOXOXOXOXOXOXOXOX",
"OXOXOXOXOXOXOXS.S.S.C.g.M.S.Y.Y.S.h.,.H._.U.>.C ` D v *                                       g &.b.n.n.0.} V k./.Y./.Y.M.1._ s v - = m O.H q OXOXOXOXOXOXOXOXOX",
"OXOXOXOXOXOXOXA.(._.Y.Y.W.Y.S.n.e.M.s.G./.e.' e.} 0 .                                           0 2.Y.W.V.{ b k./.W. XY.6.b ; b m q - V 4.] b Z OXOXOXOXOXOXOXOX",
"OXOXOXOXOXOX@.V.}..XY.U.(.U.9.O.6.v.h.h.M.>.f.V.-.=                                             . -.U./.V.{ b *.g.x.E.j.o.b = > v > - v ] F C J o.OXOXOXOXOXOXOX",
"OXOXOXOXOXS.v.9.1.7.;.7.;.} C f./.U.S.A.S.S.W.B.b .                                             $ F ] b m +. .F k c ' ,.;.' k = ; > = ; v V Z o.OXOXOXOXOXOXOXOX",
"OXOXOXOXOXT.U.S.s.J o.O.o.o.C F.{.).E.R.E.Y.].F.v                                               - s v > v e.S.M.1.d.C.C.S.S.,.0 : > = N H O.O. . .OXOXOXOXOXOXOX",
"OXOXOXOXOXoXXX Xz.C %.1. .o.C d C A.XXXX Xl.q 0                                                   : d : * ;.S.S.M.1.1.g.S.S.2.q ; = $ F 1.1.1.F t P OXOXOXOXOXOX",
"OXOXOXOXOXOX4.1.1.1.g.S.A.n.g.S.,.0 b 4.4.m q 0                                                   . = = = ,.g.<.g.h.g.S.S.S.e.C v > m J J b # # 2 i OXOXOXOXOXOX",
"OXOXOXOXOXJ J v.S.S.b.g.g.g.S.S.2.q - ' 4.b * $ O                                               : ,.S.S.,.2.S.S.S.S.S..XXX XA.b ; b J 4.' = $ # & 3 U / OXOXOXOX",
"OXOXOXOXOXOX] U.`.W.S.S.W. XA.V q > > d C b # > :                                               : C A.W.=.- q d z. XU.1.1.4.4.4.J J J 4._ # . u ! / ! P OXOXOXOX",
"OXOXOXOXOXOXJ  .i.p.v.b.n.M.;.s - = q F F C C b X                   %         #                 $ > | ;.l - q q W i.2.3.1.4.4.0. .J 9.-.j 8 . @ y I U OXOXOXOXOX",
"OXOXOXOXOXn Z m s B H O.5.1.' d s q q ] <.;.F ;             .               # #                   D &.3.g.g.g.d.g.j.d.4.O.G ] %.C b N h u P u u t r OXOXOXOXOXOX",
"OXOXOXOXOXOXq 7 : d F 5.9.5.G d > ; q n D S s O               . # # # # #   # #   O             x s.C.c.h.s.h.S.S.S.M.4.4.] ] F > ; = 2 r r r r r y OXOXOXOXOXOX",
"OXOXOXOXOXOX; $ : s H } 4.H b q ; = : b b > = O               . # # # # #     # # % #   .       $.g.g.c.C.g.C.S.S.Y.h.H 4.F S S = = 6 r 1 y r K I I E OXOXOXOXOX",
"OXOXOXOXOXb v b b b V Z J C b v - O ; b v - - $           O   .   . . # # .   # # O O   .       f.S.P.]./.S.S._.[._.f.b O.G : = # # 5 r r U U U T OXOXOXOXOXOXOX",
"OXOXOXOXJ Z J J J G C G J C C b $ $ ; q q - = $         O       . . . . # % $ %     O   . .     Q g.T.I.T.g.S.!.~.k.' V O.D - $ 4 5 5 3 I ~ OXOXOXOXOXOXOXOXOXOX",
"OXOXOXOXOX` @.O.C Z V Z J C m v . * = ; 0 ; % O     . # # .   . % % # . . # # #         . O     X F ;.5.9.&.&.} G C d n %.] q 3 y t 5 r U OXOXOXOXOXOXOXOXOXOXOX",
"OXOXOXOX5 B -._ = = v C C m v > > ; = 0 b v 0 v 0   . . . . . # # # $ # # # $ $ % O .     . . . s C H 4.4.4.H n b v D ] &.] Y T I I K y OXOXOXOXOXOXOXOXOXOXOXOX",
"OXOXOXI K w v q = $ ; b n v > q s q n } O.Z H } C   . . # # # # + $ $ $ # # # % < @ O $ $ O .   : V H 9.1.1.] C C d D ] &.&.../ R T U OXOXOXOXOXOXOXOXOXOXOXOXOX",
"OXOXy U U w v q = $ $ v V 0 $ $ 0 > x &.} Z } &.S . & 2 % % # # $ 4 7 4 = # # & 5 < $ = = & .     : C 4.1.1.} C C s s f ' &.OXOXOXOXOXOXOXOXOXOXOXOXOXOXOXOXOXOX",
"OXOXI I P 8 0 0 = = = > ; = = = % $ = q b b v 0 4 y P u 3 3 $ = = 4 p p 8 = & $ = 4 4 & $ $ O O   $ n @.7.7.O.C d q > F D q OXOXOXOXOXOXOXOXOXOXOXOXOXOXOXOXOXOX",
"OXOXE R T u ; = = $ = > > $ : > $ # = > n V > ; u T L 3 & = $ % % % $ = 4 $ $ $ 4 6 = 2 %   o O . $ b J O.o.J N q q b v q v ' OXOXOXOXOXOXOXOXOXOXOXOXOXOXOXOXOX",
"OXOXOXOX5 6 ; $ $ # = $ % # # # # # = - - - = - $ 2 3 5 3 $ # 2 3 6 = 8 4 # $ # % 2 < % # . , 5 @ $ > C 4.4.V d d d C J J C ,.S.OXOXOXOXOXOXOXOXOXOXOXOXOXOXOXOX",
"OXOXOXE i 3 i u . u u # # # O O     $ q v q = # 3 T ! P E T i u # # % $ 3 i i i i 5 1 5 5 T R t 3 V J J J J J m ; - ' 1.4.J p.S.OXOXOXOXOXOXOXOXOXOXOXOXOXOXOXOX",
"OXOXOXOXi 3 i i i i , # 2 ,   & & u t # # # # 2 y y 5 5 T ! E / T i P R ! y r U T i i r T ! y U T a d v q q d q - $ = q d C m p y OXOXOXOXOXOXOXOXOXOXOXOXOXOXOX",
"OXOXOX/ E E U 5 5 3 U ! i 3 i i i i 5 3 2   u y 3 T OXOXOXOXOXOXR T r 1 3 T E P P E U 3 1 T E i i y q d C J C d v v v v C J ) R ! / OXOXOXOXOXOXOXOXOXOXOXOXOXOX",
"OXOXOXOXOXOXP P t y U P r y i i i 5 5 5 5 4 5 U ! ~ OXOXOXOXOXOXE R ! OXOXOXOXOX~ / OXOXOXK y r r 6 q d v b d ; ; - - ; d C ( R R OXOXOXOXOXOXOXOXOXOXOXOXOXOXOX",
"OXOXOXOXOXOX! U r U R P y i T U r K U U y L ! ~ R OXOXOXOXOXOXOXOXOXOXOXOXOXOXOXOXOXOXOXOXOXOXr 5 5 9 > ; ; ; = $ = = = - V m P U OXOXOXOXOXOXOXOXOXOXOXOXOXOXOX",
"OXOXOXOXOXOXOXOXOXOXK U U r OXOXP P OXP r K OXOXOXOXOXOXOXOXOXOXOXOXOXOXOXOXOXOXOXOXOXOXOXOXOXOX1 5 5 4 > d > = $ = = v Z Z M i OXOXOXOXOXOXOXOXOXOXOXOXOXOXOXOX",
"OXOXOXOXOXOXOXOXOXOXOXOXOXOXOXOXOXOXOXOXOXOXOXOXOXOXOXOXOXOXOXOXOXOXOXOXOXOXOXOXOXOXOXOXOXOXOXOXOXOX5 9 > q > = $ # $ q M M a r OXOXOXOXOXOXOXOXOXOXOXOXOXOXOXOX",
"OXOXOXOXOXOXOXOXOXOXOXOXOXOXOXOXOXOXOXOXOXOXOXOXOXOXOXOXOXOXOXOXOXOXOXOXOXOXOXOXOXOXOXOXOXOXOXOXOXOXOXOXu p 8 $ 2 6 6 5 5 P P y 5 OXOXOXOXOXOXOXOXOXOXOXOXOXOXOX",
"OXOXOXOXOXOXOXOXOXOXOXOXOXOXOXOXOXOXOXOXOXOXOXOXOXOXOXOXOXOXOXOXOXOXOXOXOXOXOXOXOXOXOXOXOXOXOXOXOXOXOXOXOXi r K I i t i r I U U K t OXOXOXOXOXOXOXOXOXOXOXOXOXOX",
"OXOXOXOXOXOXOXOXOXOXOXOXOXOXOXOXOXOXOXOXOXOXOXOXOXOXOXOXOXOXOXOXOXOXOXOXOXOXOXOXOXOXOXOXOXOXOXOXOXOXOXOXOXOXr U U K y K i P I T T P U OXOXOXOXOXOXOXOXOXOXOXOXOX",
"OXOXOXOXOXOXOXOXOXOXOXOXOXOXOXOXOXOXOXOXOXOXOXOXOXOXOXOXOXOXOXOXOXOXOXOXOXOXOXOXOXOXOXOXOXOXOXOXOXOXOXOXOXOXOXi r U T P P R ! i E R ! OXOXOXOXOXOXOXOXOXOXOXOXOX",
"OXOXOXOXOXOXOXOXOXOXOXOXOXOXOXOXOXOXOXOXOXOXOXOXOXOXOXOXOXOXOXOXOXOXOXOXOXOXOXOXOXOXOXOXOXOXOXOXOXOXOXOXOXOXOXOXOXOXK U OXOXOXOXOXOXOXOXOXOXOXOXOXOXOXOXOXOXOXOX",
"OXOXOXOXOXOXOXOXOXOXOXOXOXOXOXOXOXOXOXOXOXOXOXOXOXOXOXOXOXOXOXOXOXOXOXOXOXOXOXOXOXOXOXOXOXOXOXOXOXOXOXOXOXOXOXOXOXOXE OXOXOXOXOXOXOXOXOXOXOXOXOXOXOXOXOXOXOXOXOX",
"OXOXOXOXOXOXOXOXOXOXOXOXOXOXOXOXOXOXOXOXOXOXOXOXOXOXOXOXOXOXOXOXOXOXOXOXOXOXOXOXOXOXOXOXOXOXOXOXOXOXOXOXOXOXOXOXOXOXOXOXOXOXOXOXOXOXOXOXOXOXOXOXOXOXOXOXOXOXOXOX",
"OXOXOXOXOXOXOXOXOXOXOXOXOXOXOXOXOXOXOXOXOXOXOXOXOXOXOXOXOXOXOXOXOXOXOXOXOXOXOXOXOXOXOXOXOXOXOXOXOXOXOXOXOXOXOXOXOXOXOXOXOXOXOXOXOXOXOXOXOXOXOXOXOXOXOXOXOXOXOXOX",
"OXOXOXOXOXOXOXOXOXOXOXOXOXOXOXOXOXOXOXOXOXOXOXOXOXOXOXOXOXOXOXOXOXOXOXOXOXOXOXOXOXOXOXOXOXOXOXOXOXOXOXOXOXOXOXOXOXOXOXOXOXOXOXOXOXOXOXOXOXOXOXOXOXOXOXOXOXOXOXOX",
"OXOXOXOXOXOXOXOXOXOXOXOXOXOXOXOXOXOXOXOXOXOXOXOXOXOXOXOXOXOXOXOXOXOXOXOXOXOXOXOXOXOXOXOXOXOXOXOXOXOXOXOXOXOXOXOXOXOXOXOXOXOXOXOXOXOXOXOXOXOXOXOXOXOXOXOXOXOXOXOX"
};
