/* XPM */
static char *e89e357b650947ceb3abb529a08fd71f3Y2qKxdXfHAsWcLn[] = {
/* columns rows colors chars-per-pixel */
"80 80 134 2 ",
"   c None",
".  c #170625",
"X  c #1A0725",
"o  c #1B0A26",
"O  c #1B0E28",
"+  c #1D1129",
"@  c #220A25",
"#  c #2C0D24",
"$  c #241127",
"%  c #2B1125",
"&  c #23142A",
"*  c #341425",
"=  c #3C1523",
"-  c #3B1B26",
";  c #2C2434",
":  c #332D3B",
">  c #561C1E",
",  c #5A1E1E",
"<  c #5D211E",
"1  c #62211C",
"2  c #68261D",
"3  c #6B2A1E",
"4  c #722E1E",
"5  c #76301F",
"6  c #7A331F",
"7  c #451622",
"8  c #431F26",
"9  c #4F1A21",
"0  c #521B20",
"q  c #452126",
"w  c #4B2426",
"e  c #44252B",
"r  c #532323",
"t  c #5A2421",
"y  c #5A2824",
"u  c #582F2A",
"i  c #402E39",
"p  c #573330",
"a  c #5E3332",
"s  c #642B23",
"d  c #6B2D21",
"f  c #722F20",
"g  c #60322E",
"h  c #723120",
"j  c #7C3620",
"k  c #7D3822",
"l  c #713628",
"z  c #703D32",
"x  c #694036",
"c  c #6A4238",
"v  c #70473F",
"b  c #7C463B",
"n  c #754A3B",
"m  c #7A503E",
"M  c #3D3543",
"N  c #47414D",
"B  c #4B414D",
"V  c #4B4651",
"C  c #4F4956",
"Z  c #524D59",
"A  c #5A4D59",
"S  c #744F48",
"D  c #6E5D4E",
"F  c #726150",
"G  c #796755",
"H  c #7A6855",
"J  c #5E5865",
"K  c #66616C",
"L  c #6A6571",
"P  c #726C79",
"I  c #803720",
"U  c #843C22",
"Y  c #864025",
"T  c #8B4426",
"R  c #8D4728",
"E  c #8E4828",
"W  c #934624",
"Q  c #944A27",
"!  c #9F4E24",
"~  c #914A29",
"^  c #994C28",
"/  c #9C512B",
"(  c #87553F",
")  c #A24F28",
"_  c #A3542D",
"`  c #AC552A",
"'  c #AF582B",
"]  c #B25B27",
"[  c #B55B2C",
"{  c #B1592C",
"}  c #C16529",
"|  c #8F5B47",
" . c #8A5D50",
".. c #926046",
"X. c #93644D",
"o. c #996A4E",
"O. c #826E5A",
"+. c #946556",
"@. c #976D5C",
"#. c #9E6E5E",
"$. c #96785E",
"%. c #AC785E",
"&. c #A87461",
"*. c #B17D61",
"=. c #B17C68",
"-. c #B27C69",
";. c #B78164",
":. c #B89976",
">. c #B69A78",
",. c #B9A07D",
"<. c #7F7987",
"1. c #898390",
"2. c #918C95",
"3. c #918B99",
"4. c #97929D",
"5. c #9C96A3",
"6. c #9D98A4",
"7. c #A19CA7",
"8. c #A29DA8",
"9. c #A9A5AF",
"0. c #B1ADB7",
"q. c #B2AEB8",
"w. c #B7B3BC",
"e. c #B9B5BE",
"r. c #C8A982",
"t. c #CDB189",
"y. c #D2B68D",
"u. c #E7C99C",
"i. c #E6C89A",
"p. c #E9C99B",
"a. c #ECCD9F",
"s. c #EECFA0",
"d. c #EECFA0",
"f. c #EFD0A0",
/* pixels */
"                                                                                                                                                                ",
"                                                                                                                                                                ",
"                                                                                                                                                                ",
"                                                                                                                                                                ",
"                                                                                                                                                                ",
"                                                                                                                                                                ",
"                                                                                                                                                                ",
"                                                                                                                                                                ",
"                                                                                                                                                                ",
"                                                                                                                                                                ",
"                                                                                                                                                                ",
"                                                                                                                                                                ",
"                                                                                                                                                                ",
"                                                                                                                                                                ",
"                                                                                                                                                                ",
"                                                                                                                                                                ",
"                                                                                                                                                                ",
"                                                                                                                                                                ",
"                                                                                                                                                                ",
"                                                                                                                                                                ",
"                                                                                                                                                                ",
"                                                                                                                                                                ",
"                                                                                                                                                                ",
"                                                                                                                                                                ",
"                                                                                                                                                                ",
"                                                                                                                                                                ",
"                                                              . . . . . . . . . .                                                                               ",
"                                                              o . . . . . . . . .                                                                               ",
"                                                              * * - 7 7 9 r 0 r 9 q                                                                             ",
"                                                        o . @ q w 0 1 1 h j h j j r . .                       . .                                               ",
"                                                        O . O q w r 1 1 4 6 6 6 j 0 . .                       o .                                               ",
"                                                    + + - q 8 < t 2 4 f U T Q ] ] W d d - O +     & + + + O H t.t.D + ;                                         ",
"                                                    . . - w w 1 , 2 6 6 R ~ / } } ! j j - . .     o X . X . O.d.i.F . :                                         ",
"                                                    X X - w r , 1 3 6 6 T ~ / } } ) 6 6 = X X     o X X $ $ O.d.i.F . :                                         ",
"                                              + o * 8 8 t t 1 f 5 U / / Y U U / / / / / s , 9 o o 9 , > #.#.@.G G                                               ",
"                                              o . * q w t 1 1 6 6 T _ _ U 6 6 E ~ / _ _ 4 1 > . . > 1 1 =.=.@.. .                                               ",
"                                              @ $ - w w t 2 2 j k R _ _ Y U U R R Q / ^ 4 , > # # 0 2 1 &.&.+.. o                                               ",
"                                          . o q e r 1 1 4 h 6 E ~ E E ~ ] [ ' 6 6 3 1 1 w w w 1 1 5 6 6 1 1 > . .                                               ",
"                                          . o 8 w r , 1 f j j R E ~ ~ E ' [ ` I 6 3 1 1 r w w 1 1 5 6 6 1 1 > . .                                               ",
"                                          . @ w w < 1 1 h U U R R E T T ` ] ) I 6 4 1 1 r w r , , ( ...., , > . o                                               ",
"                                          . @ > 1 2 j 6 E _ / U j h 2 2 j I U R ~ U j h 1 1 > @ @ t.p.p.@ @ @                                                   ",
"                                          . @ , 1 2 6 6 Q _ _ I j 3 1 , 4 j I R ~ U 6 j 2 , > . X y.d.d.. . o                                                   ",
"                                          . o , 1 2 6 6 E ^ / ~ W U 3 3 f 4 j U Y j d d t t u S S :.r.r.. . o                                                   ",
"                                          . @ , 1 2 6 6 T ~ ^ { [ ) 6 6 1 1 1 j j s w w w w v =.=.b 1 1 . . .                                                   ",
"                                          . @ , 1 2 6 6 R ~ Q { [ ) j j 2 , 1 j h s w w e w S =.=.b 1 1 o . .                                                   ",
"                                            $ 7 7 > 3 4 k U T ) ` ^ U Y 2 1 < t t $.>.>.m s z  . .a 7 7 +                                                       ",
"                                              . . 7 1 1 f j j E R ~ ~ ~ 3 1 , @ . ,.f.d.o.6 h w w % X .                                                         ",
"                                              . . = 1 , 4 6 j R ~ ~ E ~ 3 1 , @ . ,.d.d.o.6 h w w # . .                                                         ",
"                                              0.0.2.@ @ 0 1 1 j j j j j y w c %.*.X.b n u r q O o                                                               ",
"                                              e.e.4.X X 9 1 1 6 6 6 6 h r w c *.*.| , 1 w w 8 . .                                                               ",
"                                              e.e.4.. . > 1 1 h 6 6 j j r w c *.;.| 1 1 w w q . .                                                               ",
"                                          e.w.8.6.3.<.<.A * = y y y 2 2 h h l n n p * = % % B <.<.9.e.e.                                                        ",
"                                          e.w.5.2.3.3.3.J . @ q w t 1 , 5 6 h w w * o X . . C 3.3.0.e.e.                                                        ",
"                                          e.w.6.4.4.4.4.L M M e q w , , 3 4 d w q i M M N C K 4.4.0.e.e.                                                        ",
"                                              e.e.e.e.e.8.3.1.M . . X X . . . . . P 3.3.q.e.e.e.e.                                                              ",
"                                              e.e.e.e.e.8.3.1.M . . . . . . . . . P 3.3.q.e.e.e.e.                                                              ",
"                                              e.e.e.e.e.7.3.1.Z N N B N N N N N N P 3.3.q.e.e.e.e.                                                              ",
"                                                              e.e.w.e.e.e.e.e.e.e.                                                                              ",
"                                                              e.e.e.e.e.e.e.e.e.e.                                                                              ",
"                                                                                                                                                                ",
"                                                                                                                                                                ",
"                                                                                                                                                                ",
"                                                                                                                                                                ",
"                                                                                                                                                                ",
"                                                                                                                                                                ",
"                                                                                                                                                                ",
"                                                                                                                                                                ",
"                                                                                                                                                                ",
"                                                                                                                                                                ",
"                                                                                                                                                                ",
"                                                                                                                                                                ",
"                                                                                                                                                                ",
"                                                                                                                                                                ",
"                                                                                                                                                                ",
"                                                                                                                                                                ",
"                                                                                                                                                                ",
"                                                                                                                                                                ",
"                                                                                                                                                                ",
"                                                                                                                                                                ",
"                                                                                                                                                                "
};
