/* XPM */
static char *result[] = {
/* columns rows colors chars-per-pixel */
"80 80 177 2 ",
"   c #21110D",
".  c #21120D",
"X  c #22120E",
"o  c #23130F",
"O  c #25140F",
"+  c #251510",
"@  c #271710",
"#  c #281710",
"$  c #291913",
"%  c #291A13",
"&  c #2C1A12",
"*  c #2B1C15",
"=  c #2C1C15",
"-  c #2D1D16",
";  c #2D1E16",
":  c #2F1F17",
">  c #281B19",
",  c #352217",
"<  c #33231A",
"1  c #372318",
"2  c #34231A",
"3  c #37251A",
"4  c #37251B",
"5  c #39271B",
"6  c #3B261A",
"7  c #3C281C",
"8  c #3C291D",
"9  c #3D2A1D",
"0  c #3F2A1C",
"q  c #3E2A1E",
"w  c #3E2B1E",
"e  c #3F2B1E",
"r  c #2D2422",
"t  c #322927",
"y  c #3C3537",
"u  c #402A1D",
"i  c #412B1D",
"p  c #402C1F",
"a  c #412C1F",
"s  c #422C1E",
"d  c #422C1F",
"f  c #442D1E",
"g  c #442D1F",
"h  c #452E1F",
"j  c #422D20",
"k  c #432D20",
"l  c #462F20",
"z  c #472F20",
"x  c #462F21",
"c  c #473021",
"v  c #483022",
"b  c #483122",
"n  c #483223",
"m  c #493223",
"M  c #4A3222",
"N  c #4B3222",
"B  c #4B3322",
"V  c #4C3323",
"C  c #4C3423",
"Z  c #4D3423",
"A  c #4B3324",
"S  c #4B3424",
"D  c #4E3424",
"F  c #4F3624",
"G  c #4F3625",
"H  c #503625",
"J  c #513725",
"K  c #503826",
"L  c #533826",
"P  c #533827",
"I  c #543927",
"U  c #543A27",
"Y  c #553A27",
"T  c #543B28",
"R  c #573C29",
"E  c #563E2E",
"W  c #583C29",
"Q  c #583D29",
"!  c #583D2A",
"~  c #5A3E2A",
"^  c #5B3F2A",
"/  c #5B3F2B",
"(  c #413B39",
")  c #5D412B",
"_  c #5E412C",
"`  c #5E422C",
"'  c #5F422C",
"]  c #5F422D",
"[  c #5F432E",
"{  c #61432E",
"}  c #61442D",
"|  c #61442E",
" . c #62442E",
".. c #62452E",
"X. c #63452F",
"o. c #63462F",
"O. c #64462F",
"+. c #654730",
"@. c #664730",
"#. c #664831",
"$. c #674831",
"%. c #684931",
"&. c #694932",
"*. c #694A32",
"=. c #6A4B32",
"-. c #684B36",
";. c #694C37",
":. c #6D4D34",
">. c #6E4E34",
",. c #6F4E35",
"<. c #6F4F35",
"1. c #6B4D38",
"2. c #704F36",
"3. c #715036",
"4. c #725136",
"5. c #725137",
"6. c #735237",
"7. c #745237",
"8. c #745238",
"9. c #745338",
"0. c #755338",
"q. c #765439",
"w. c #77563D",
"e. c #74563F",
"r. c #79573C",
"t. c #474449",
"y. c #524A4B",
"u. c #50494C",
"i. c #544F4F",
"p. c #584C4A",
"a. c #4F4D53",
"s. c #504E54",
"d. c #55535A",
"f. c #585459",
"g. c #745640",
"h. c #60585A",
"j. c #655A5B",
"k. c #5A5960",
"l. c #66666E",
"z. c #6D6D76",
"x. c #73747D",
"c. c #73747E",
"v. c #815E42",
"b. c #826047",
"n. c #846044",
"m. c #846145",
"M. c #886448",
"N. c #8C674B",
"B. c #8D684C",
"V. c #8E694C",
"C. c #8E694D",
"Z. c #8F6A4D",
"A. c #916C4F",
"S. c #946E51",
"D. c #967053",
"F. c #977154",
"G. c #9C7557",
"H. c #9D7658",
"J. c #7C7D87",
"K. c #7D7E89",
"L. c #7D7F89",
"P. c #7D7F8A",
"I. c #7F818B",
"U. c #80828C",
"Y. c #81838E",
"T. c #82848F",
"R. c #858691",
"E. c #858791",
"W. c #878993",
"Q. c #888A94",
"!. c #8F919A",
"~. c #90929B",
"^. c #BCBDC1",
"/. c #C4C5C8",
"(. c #DFDFE0",
"). c #ECECEC",
"_. c None",
/* pixels */
"_._._._._._._._._._._._._._._._._._._._._._._._._._._._._._._._._._._._._._._._._._._._._._._._._._._._._._._._._._._._._._._._._._._._._._._._._._._._._._._._.",
"_._._._._._._._._._._._._._._._._._._._._._._._._._._._._._._._._._._._._._._._._._._._._._._._._._._._._._._._._._._._._._._._._._._._._._._._._._._._._._._._.",
"_._._._._._._._._._._._._._._._._._._._._._._._._._._._._._._._._._._._._._._._._._._._._._._._._._._._._._._._._._._._._._._._._._._._._._._._._._._._._._._._.",
"_._._._._._._._._._._._._._._._._._._._._._._._._._._._._._._._._._._._._._._._._._._._._._._._._._._._._._._._._._._._._._._._._._._._._._._._._._._._._._._._.",
"_._._._._._._._._._._._._._._._._._._._._._._._._._._._._._._._._._._._._._._._._._._._._._._._._._._._._._._._._._._._._._._._._._._._._._._._._._._._._._._._.",
"_._._._._._._._._._._._._._._._._._._._._._._._._._._._._._._._._._._._._._._._._._._._._._._._._._._._._._._._._._._._._._._._._._._._._._._._._._._._._._._._.",
"_._._._._._._._._._._._._._._._._._._._._._._._._._._._._._._._._._._._._._._._._._._._._._._._._._._._._._._._._._._._._._._._._._._._._._._._._._._._._._._._.",
"_._._._._._._._._._._._._._._._._._._._._._._._._._._._._._._._._._._._._._._._._._._._._._._._._._._._._._._._._._._._._._._._._._._._._._._._._._._._._._._._.",
"_._._._._._._._._._._._._._._._._._._._._._._._._._._._._._._._._._._._._._._._._._._._._._._._._._._._._._._._._._._._._._._._._._._._._._._._._._._._._._._._.",
"_._._._._._._._._._._._._._._._._._._._._._._._._._._._._._._._._._._._._._._._._._._._._._._._._._._._._._._._._._._._._._._._._._._._._._._._._._._._._._._._.",
"_._._._._._._._._._._._._._._._._._._._._._._._._._._._._._._._._._._._._._._._._._._._._._._._._._._._._._._._._._._._._._._._._._._._._._._._._._._._._._._._.",
"_._._._._._._._._._._._._._._._._._._._._._._._._._._._._._._._._._._._._._._._._._._._._._._._._._._._._._._._._._._._._._._._._._._._._._._._._._._._._._._._.",
"_._._._._._._._._._._._._._._._._._._._._._._._._._._._._._._._._._._._._._._._._._._._._._._._._._._._._._._._._._._._._._._._._._._._._._._._._._._._._._._._.",
"_._._._._._._._._._._._._._._._._._._._._._._._._._._._._._._._._._._._._._._._._._._._._._._._._._._._._._._._._._._._._._._._._._._._._._._._._._._._._._._._.",
"_._._._._._._._._._._._._._._._._._._._._._._._._._._._._._._._._._._._._._._._._._._._._._._._._._._._._._._._._._._._._._._._._._._._._._._._._._._._._._._._.",
"_._._._._._._._._._._._._._._._._._._._._._._._._._._._._._._._._._._._._._._._._._._._._._._._._._._._._._._._._._._._._._._._._._._._._._._._._._._._._._._._.",
"_._._._._._._._._._._._._._._._._._._._._._._._._._._._._._._._._._._._._._._._._._._._._._._._._._._._._._._._._._._._._._._._._._._._._._._._._._._._._._._._.",
"_._._._._._._._._._._._._._._._._._._._._._._._._._._._._._._._._._._._._._._._._._._._._._._._._._._._._._._._._._._._._._._._._._._._._._._._._._._._._._._._.",
"_._._._._._._._._._._._._._._._._._._._._._._._._._._._._._._._._._._._._._._._._._._._._._._._._._._._._._._._._._._._._._._._._._._._._._._._._._._._._._._._.",
"_._._._._._._._._._._._._._._._._._._._._._._._._._._._._._._._._._._._._._._._._._._._._._._._._._._._._._._._._._._._._._._._._._._._._._._._._._._._._._._._.",
"_._._._._._._._._._._._._._._._._._._._._._._._._._._._._._._._._._._._._._._._._._._._._._._._._._._._._._._._._._._._._._._._._._._._._._._._._._._._._._._._.",
"_._._._._._._._._._._._._._._._._._._._._._._._._._._._._._._._._._._._._._._._._._._._._._._._._._._._._._._._._._._._._._._._._._._._._._._._._._._._._._._._.",
"_._._._._._._._._._._._._._._._._._._._._._._._._._._._._._._._._._._._._._._._._._._._._._._._._._._._._._._._._._._._._._._._._._._._._._._._._._._._._._._._.",
"_._._._._._._._._._._._._._._._._._._._._._._._._._._._._._._._._._._._._._._._._._._._._._._._._._._._._._._._._._._._._._._._._._._._._._._._._._._._._._._._.",
"_._._._._._._._._._._._._._._._._._._._._._._._._._._._._._._._._._._._._._._._._._._._._._._._._._._._._._._._._._._._._._._._._._._._._._._._._._._._._._._._.",
"_._._._._._._._._._._._._._._._._._._._._._._._._._._._._._._._._._._._._._._._._._._._._._._._._._._._._._._._._._._._._._._._._._._._._._._._._._._._._._._._.",
"_._._._._._._._._._._._._._._._._._._._._._._._._._._._._._._._._._._._._._._._._._._._._._._._._._._._._._._._._._._._._._._._._._._._._._._._._._._._._._._._.",
"_._._._._._._._._._._._._._._._._._._._._._._._._._._._._._._._._._._._._._._._._._._._._._._._._._._._._._._._._._._._._._._._._._._._._._._._._._._._._._._._.",
"_._._._._._._._._._._._._._._._._._._._._._._._._._._._._._._._._._._._._._._._._._._._._._._._._._._._._._._._._._._._._._._._._._._._._._._._._._._._._._._._.",
"_._._._._._._._._._._._._._._._._._._._._._._._._._._._._._._._._._._._.                    _._._._._._._._._._._._._._._._._._._._._._._._._._._._._._._._._._.",
"_._._._._._._._._._._._._._._._._._._._._._._._._._._._._._._._._._.e.g.g.Q Q Q g.-.Q g.;.Q i.(   _._._._._._._._._._._._._._._._._._._._._._._._._._._._._._._.",
"_._._._._._._._._._._._._._._._._._._._._._._._._._._._._._._._.    H.H.H.0.0.0.H.N.0.H.B.0.      _._._._._._._._._._._._._._._._._._._._._._._._._._._._._._._.",
"_._._._._._._._._._._._._._._._._._._._._._._._._._._._._._.  0.Z.H.0.0.0.H.H.H.H.H.H.0.0.0.H.Z.0.  > _._._._._._._._._._._._._._._._._._._._._._._._._._._._._.",
"_._._._._._._._._._._._._._._._._._._._._._._._._._._._._.U ) V.F.H.0.n.V.H.H.H.H.H.H.V.n.0.H.F.V.) E r _._._._._._._._._._._._._._._._._._._._._._._._._._._._.",
"_._._._._._._._._._._._._._._._._._._._._._._._._._._._.  } 0.H.H.H.0.B.H.H.H.H.H.H.H.H.B.0.H.H.H.0.}   _._._._._._._._._._._._._._._._._._._._._._._._._._._._.",
"_._._._._._._._._._._._._._._._._._._._._._._._._.      < < < H.H.H.H.M.0.0.0.0.H.H.H.H.H.H.H.H.H.< ;   _._._._._._._._._._._._._._._._._._._._._._._._._._._._.",
"_._._._._._._._._._._._._._._._._._._._._._._._.# ..F g < a v m.S.H.H.D.A.0.0.0.m.m.m.m.m.m.H.S.m.v x g t _._._._._._._._._._._._._._._._._._._._._._._._._._._.",
"_._._._._._._._._._._._._._._._._._._._._._._.O & 0._ H < c H 8.C.G.G.H.H.q.q.q.q.q.q.q.q.q.G.C.9.H H J     _._._._._._._._._._._._._._._._._._._._._._._._._._.",
"_._._._._._._._._._._._._._._._._._._._._._.  +.0.0.K < < c H < | 0.H b.H.H.H.H.H.H.H.H.H.H.0.%.H H ] 0.    _._._._._._._._._._._._._._._._._._._._._._._._._._.",
"_._._._._._._._._._._._._._._._._._._._._._.  @.7.f 5 < *.~ H M A S :.r.v.v.v.v.v.w.1.v.v.v./ R H 8 m / $.^   _._._._._._._._._._._._._._._._._._._._._._._._._.",
"_._._._._._._._._._._._._._._._._._._._._.P.  | >.o 3 w 0. .Y H p < 0.0.0.0.0.0.4.X.H 4.6.0.Y L H < q D 4.| o _._._._._._._._._._._._._._._._._._._._._._._._._.",
"_._._._._._._._._._._._._._._._._._._._._.J.    X < #.0.0.0.0.H p < 0.0.0.0.0.0.H H H H ..0.0.%.H < < < H b < X   _._._._._._._._._._._._._._._._._._._._._._._.",
"_._._._._._._._._._._._._._._._._._._._._._.x.t.@ :.5.0.W W W H 6 + W *.0.W W W H { <.H ..0.0.%.H < < < <.,.:.2 -   _._._._._._._._._._._._._._._._._._._._._._.",
"_._._._._._._._._._._._._._._._._._._._._._.c.y.0 0.0.0.W P H V 1   W *.0.W I H W $.0.W @.0.0.%.H < < < <.3.0.n 9   _._._._._._._._._._._._._._._._._._._._._._.",
"_._._._._._._._._._._._._._._._._._._._._._.  @.0.0.0.0.0.] H < %   0.0.0.0.O.H 0.0.0.0.0.0.0.%.H < < < H _ 0.0.@.  _._._._._._._._._._._._._._._._._._._._._._.",
"_._._._._._._._._._._._._._._._._._._._._._.  @.0.0.0.0.0.] H o u Z 0.0.0.0.O.H 0.[ w 0.0.0.0.7.4.D s o 4 j Y Y M   L._._._._._._._._._._._._._._._._._._._._._.",
"_._._._._._._._._._._._._._._._._._._._._._.  @.0.0.0.0.:.! M   N / 0.0.0.0.&./ *.T < :.3.0.:.2.0./ C   : 7 H H l   P.!._._._._._._._._._._._._._._._._._._._._.",
"_._._._._._._._._._._._._._._._._._._._._.K.  @.0.0.0.0.H e <   ` 0.0.0.0.0.0.0.< < < H ..0.H { 0.0.}     , H H l   P.~._._._._._._._._._._._._._._._._._._._._.",
"_._._._._._._._._._._._._._._._._._._._.Q.P.  z J J J J 2 $ . G %.0.0.0.0.J @.0.< = . 2 j J 9.0.0.0.0.7.  s.Y.Y.Y.Y.(._._._._._._._._._._._._._._._._._._._._._.",
"_._._._._._._._._._._._._._._._._._._._._.K.a.h.j.j.j.j.f.y   ' :.0.0.,.=.H ] =.< *   < d H 0.0.0.0.0.0.B p.z.Y.R.W._._._._._._._._._._._._._._._._._._._._._._.",
"_._._._._._._._._._._._._._._._._._._._._._._._._.T.T.T.T.d.  0.0.0.0...H H H H < *   < d H 0.0.0.0.0.0.0.o.  U.E._._._._._._._._._._._._._._._._._._._._._._._.",
"_._._._._._._._._._._._._._._._._._._._._._._._._._._.T.T.d.  0.0.0.0...H H k <         6 H H { 0.0.0.0.H h   U.T._._._._._._._._._._._._._._._._._._._._._._._.",
"_._._._._._._._._._._._._._._._._._._._._._._._._._._._.T.d.  $.$.$.$./ H H k < k.k.k.k.u.i H ~ $.$.$.$.H h   U.T._._._._._._._._._._._._._._._._._._._._._._._.",
"_._._._._._._._._._._._._._._._._._._._._._._._._._._._._.s.  H H H H H H H k < T.T.T.T.l.  H H H H H H H h   I._._._._._._._._._._._._._._._._._._._._._._._._.",
"_._._._._._._._._._._._._._._._._._._._._._._._._._._._._.T.T.T.T.T.T.T.T.T.T.T.T.^.).)./.T.T.T.T.T.T.T.T.T.T._._._._._._._._._._._._._._._._._._._._._._._._._.",
"_._._._._._._._._._._._._._._._._._._._._._._._._._._._._._._._._._._._._._._._._._._._._._._._._._._._._._._._._._._._._._._._._._._._._._._._._._._._._._._._.",
"_._._._._._._._._._._._._._._._._._._._._._._._._._._._._._._._._._._._._._._._._._._._._._._._._._._._._._._._._._._._._._._._._._._._._._._._._._._._._._._._.",
"_._._._._._._._._._._._._._._._._._._._._._._._._._._._._._._._._._._._._._._._._._._._._._._._._._._._._._._._._._._._._._._._._._._._._._._._._._._._._._._._.",
"_._._._._._._._._._._._._._._._._._._._._._._._._._._._._._._._._._._._._._._._._._._._._._._._._._._._._._._._._._._._._._._._._._._._._._._._._._._._._._._._.",
"_._._._._._._._._._._._._._._._._._._._._._._._._._._._._._._._._._._._._._._._._._._._._._._._._._._._._._._._._._._._._._._._._._._._._._._._._._._._._._._._.",
"_._._._._._._._._._._._._._._._._._._._._._._._._._._._._._._._._._._._._._._._._._._._._._._._._._._._._._._._._._._._._._._._._._._._._._._._._._._._._._._._.",
"_._._._._._._._._._._._._._._._._._._._._._._._._._._._._._._._._._._._._._._._._._._._._._._._._._._._._._._._._._._._._._._._._._._._._._._._._._._._._._._._.",
"_._._._._._._._._._._._._._._._._._._._._._._._._._._._._._._._._._._._._._._._._._._._._._._._._._._._._._._._._._._._._._._._._._._._._._._._._._._._._._._._.",
"_._._._._._._._._._._._._._._._._._._._._._._._._._._._._._._._._._._._._._._._._._._._._._._._._._._._._._._._._._._._._._._._._._._._._._._._._._._._._._._._.",
"_._._._._._._._._._._._._._._._._._._._._._._._._._._._._._._._._._._._._._._._._._._._._._._._._._._._._._._._._._._._._._._._._._._._._._._._._._._._._._._._.",
"_._._._._._._._._._._._._._._._._._._._._._._._._._._._._._._._._._._._._._._._._._._._._._._._._._._._._._._._._._._._._._._._._._._._._._._._._._._._._._._._.",
"_._._._._._._._._._._._._._._._._._._._._._._._._._._._._._._._._._._._._._._._._._._._._._._._._._._._._._._._._._._._._._._._._._._._._._._._._._._._._._._._.",
"_._._._._._._._._._._._._._._._._._._._._._._._._._._._._._._._._._._._._._._._._._._._._._._._._._._._._._._._._._._._._._._._._._._._._._._._._._._._._._._._.",
"_._._._._._._._._._._._._._._._._._._._._._._._._._._._._._._._._._._._._._._._._._._._._._._._._._._._._._._._._._._._._._._._._._._._._._._._._._._._._._._._.",
"_._._._._._._._._._._._._._._._._._._._._._._._._._._._._._._._._._._._._._._._._._._._._._._._._._._._._._._._._._._._._._._._._._._._._._._._._._._._._._._._.",
"_._._._._._._._._._._._._._._._._._._._._._._._._._._._._._._._._._._._._._._._._._._._._._._._._._._._._._._._._._._._._._._._._._._._._._._._._._._._._._._._.",
"_._._._._._._._._._._._._._._._._._._._._._._._._._._._._._._._._._._._._._._._._._._._._._._._._._._._._._._._._._._._._._._._._._._._._._._._._._._._._._._._.",
"_._._._._._._._._._._._._._._._._._._._._._._._._._._._._._._._._._._._._._._._._._._._._._._._._._._._._._._._._._._._._._._._._._._._._._._._._._._._._._._._.",
"_._._._._._._._._._._._._._._._._._._._._._._._._._._._._._._._._._._._._._._._._._._._._._._._._._._._._._._._._._._._._._._._._._._._._._._._._._._._._._._._.",
"_._._._._._._._._._._._._._._._._._._._._._._._._._._._._._._._._._._._._._._._._._._._._._._._._._._._._._._._._._._._._._._._._._._._._._._._._._._._._._._._.",
"_._._._._._._._._._._._._._._._._._._._._._._._._._._._._._._._._._._._._._._._._._._._._._._._._._._._._._._._._._._._._._._._._._._._._._._._._._._._._._._._.",
"_._._._._._._._._._._._._._._._._._._._._._._._._._._._._._._._._._._._._._._._._._._._._._._._._._._._._._._._._._._._._._._._._._._._._._._._._._._._._._._._.",
"_._._._._._._._._._._._._._._._._._._._._._._._._._._._._._._._._._._._._._._._._._._._._._._._._._._._._._._._._._._._._._._._._._._._._._._._._._._._._._._._.",
"_._._._._._._._._._._._._._._._._._._._._._._._._._._._._._._._._._._._._._._._._._._._._._._._._._._._._._._._._._._._._._._._._._._._._._._._._._._._._._._._.",
"_._._._._._._._._._._._._._._._._._._._._._._._._._._._._._._._._._._._._._._._._._._._._._._._._._._._._._._._._._._._._._._._._._._._._._._._._._._._._._._._."
};
